PathFileType	4	(X/Y/Z)	D:\TRACE\v60_Jaco2_6-2-23\JustArmDRS_Motion1_2-v60.trc
DataRate	CameraRate	NumFrames	NumMarkers	Units	OrigDataRate	OrigDataStartFrame	OrigNumFrames
100.00	100.00	      42	9	mm	100.00	1	      6808
Frame#	Time	front left toe			Front right toe			aft left toe			aft right toe			Arm			FL body			FR body			AL Body			AR Body			
		X1	Y1	Z1	X2	Y2	Z2	X3	Y3	Z3	X4	Y4	Z4	X5	Y5	Z5	X6	Y6	Z6	X7	Y7	Z7	X8	Y8	Z8	X9	Y9	Z9	

1	0.000	-200.99533	19.89487	-166.00737	206.92828	18.49165	-210.38846	-135.21083	16.62893	438.87631	267.91562	19.60543	427.16437	13.45743	1214.27466	-210.11450	-89.60149	583.37433	-306.37811	69.79223	583.09418	-323.34253	10.29204	585.77716	634.56464	166.10764	579.74768	618.66205	
2	0.010	-200.98796	19.87400	-166.00914	206.93462	18.46860	-210.40773	-135.22231	16.61610	438.85712	267.95468	19.60763	427.19080	13.45477	1214.25647	-210.13422	-89.61469	583.36621	-306.38461	69.79606	583.10284	-323.34824	10.33814	585.78900	634.58557	166.13159	579.75287	618.65430	
3	0.020	-200.99661	19.89437	-166.00293	206.90623	18.49494	-210.37093	-135.24167	16.61800	438.88629	267.97751	19.64765	427.20432	13.45298	1214.25256	-210.11110	-89.60715	583.36554	-306.37479	70.45467	583.19409	-323.73016	10.31408	585.78296	634.56708	166.13235	579.73920	618.62488	
4	0.030	-200.90889	19.82666	-166.04552	206.92741	18.50968	-210.40012	-135.19954	16.58978	438.88867	268.02472	19.65576	427.18430	13.47974	1214.26074	-210.14441	-89.57208	583.35596	-306.37726	69.89973	583.11804	-323.33163	10.33317	585.78668	634.57568	166.11223	579.75482	618.67163	
5	0.040	-201.01242	19.89793	-166.01808	206.93359	18.52905	-210.43987	-135.24385	16.60128	438.86487	267.91803	19.61440	427.17197	13.50152	1214.26062	-210.12823	-89.50655	583.39124	-306.41650	70.42231	583.21301	-323.76593	10.28002	585.77429	634.56958	166.09073	579.74500	618.65869	
6	0.050	-201.03046	19.90914	-166.04341	206.96767	18.54076	-210.41576	-135.23650	16.61008	438.89243	267.39017	19.67781	427.40829	13.49267	1214.26746	-210.16905	-89.50765	583.37872	-306.39725	70.50216	583.20007	-323.73602	10.26995	585.78857	634.55536	166.02016	579.78516	618.67706	
7	0.060	-201.07986	19.92761	-166.00490	206.92285	18.52987	-210.41357	-135.26379	16.62842	438.90662	267.34689	19.69567	427.43454	13.51754	1214.28748	-210.16498	-89.51342	583.34985	-306.40613	70.47430	583.21246	-323.77280	10.27863	585.77509	634.52936	166.04250	579.78876	618.68909	
8	0.070	-201.01309	19.91531	-166.00085	206.95555	18.51849	-210.38881	-135.26593	16.65359	438.89941	267.38394	19.72464	427.40790	13.55849	1214.25940	-210.18359	-89.46282	583.34125	-306.41220	70.50104	583.18970	-323.73761	10.34353	585.80627	634.57220	166.10022	579.75647	618.69086	
9	0.080	-201.00230	19.87607	-166.03445	206.99162	18.52963	-210.40878	-135.23592	16.60771	438.89212	267.99350	19.65461	427.20761	13.56630	1214.22437	-210.18900	-89.46633	583.31964	-306.43054	70.54770	583.16229	-323.75839	10.29401	585.77106	634.49786	166.07251	579.73737	618.39258	
10	0.090	-200.91757	19.84229	-166.01900	206.98331	18.51953	-210.38971	-135.20688	16.61487	438.91202	268.04282	19.64584	427.17361	13.59167	1214.22424	-210.20251	-89.40865	583.39166	-306.41183	70.58749	583.18646	-323.70175	10.34105	585.77649	634.54675	166.15294	579.75311	618.63788	
11	0.100	-200.99460	19.86331	-166.01924	206.97940	18.52120	-210.42290	-135.21126	16.58018	438.89401	267.97501	19.61652	427.15414	13.59558	1214.23230	-210.21817	-89.37302	583.36047	-306.44418	69.93922	583.08087	-323.38074	10.34587	585.76501	634.55536	166.17053	579.71582	618.63275	
12	0.110	-201.04189	19.91453	-166.03171	206.97469	18.52697	-210.41853	-135.18073	16.58126	438.89291	268.00174	19.61465	427.20432	13.62749	1214.21338	-210.21088	-89.42696	583.35321	-306.43127	69.94171	583.08228	-323.38159	10.32239	585.75885	634.54449	166.06104	579.69666	618.39124	
13	0.120	-201.06841	19.92418	-166.02562	206.97063	18.54473	-210.42281	-135.21587	16.59220	438.86526	267.99661	19.63573	427.17203	13.66922	1214.21985	-210.24112	-89.35670	583.36267	-306.41574	69.93929	583.08441	-323.34158	10.31887	585.76263	634.53290	166.12505	579.76227	618.67499	
14	0.130	-201.04761	19.91800	-166.01776	206.95679	18.54524	-210.44916	-135.22546	16.59742	438.88760	267.38531	19.74375	427.41476	13.69180	1214.20837	-210.25638	-89.38474	583.34241	-306.43182	70.58171	583.17560	-323.76035	10.30576	585.78741	634.52637	166.14088	579.76208	618.65021	
15	0.140	-201.01262	19.89667	-166.01129	207.00201	18.50889	-210.38672	-135.25243	16.60704	438.88159	267.97656	19.62288	427.19867	13.72239	1214.23206	-210.27031	-89.35921	583.34760	-306.42737	69.94747	583.06830	-323.37097	10.29728	585.78870	634.51563	166.12987	579.73840	618.63806	
16	0.150	-201.04501	19.91244	-166.00764	206.94708	18.51934	-210.41991	-135.20274	16.58646	438.86755	267.98242	19.62369	427.19824	13.73374	1214.20752	-210.24516	-89.34419	583.33411	-306.46948	69.91741	583.07642	-323.41989	10.32439	585.76758	634.54767	166.11203	579.72211	618.40601	
17	0.160	-201.06709	19.91810	-166.00731	206.98578	18.54022	-210.36226	-135.22276	16.60268	438.90491	268.02780	19.63190	427.20450	13.73394	1214.21460	-210.27800	-89.32567	583.34082	-306.45813	69.89855	583.09009	-323.40659	10.32570	585.76764	634.55353	166.21310	579.74445	618.65106	
18	0.170	-200.87149	19.87132	-166.02411	207.00850	18.55524	-210.39694	-135.16258	16.55059	438.87262	268.03848	19.62608	427.20932	13.78233	1214.20276	-210.28532	-89.31240	583.33728	-306.46429	69.96349	583.10016	-323.40576	10.34650	585.75757	634.51447	166.20352	579.74591	618.65967	
19	0.180	-200.92326	19.89085	-166.04018	207.00398	18.51811	-210.41423	-135.22250	16.61164	438.86523	268.01047	19.61614	427.23193	13.77000	1214.20789	-210.30389	-89.27817	583.35931	-306.48190	69.98368	583.08142	-323.39627	10.32172	585.78015	634.51941	166.20821	579.74518	618.64130	
20	0.190	-201.03322	19.91084	-166.03625	206.93044	18.49996	-210.39603	-135.25203	16.61874	438.85223	267.93106	19.60439	427.20499	13.78180	1214.20679	-210.33784	-89.33170	583.35443	-306.45657	69.97433	583.08740	-323.40909	10.34421	585.76819	634.47491	166.17880	579.75360	618.61926	
21	0.200	-200.95831	19.87313	-166.05420	206.93817	18.47422	-210.40169	-135.30356	16.66959	438.87927	267.92984	19.62181	427.16782	13.83240	1214.22144	-210.33788	-89.26937	583.30945	-306.46680	69.95120	583.07544	-323.40503	10.32094	585.79456	634.50220	166.14258	579.76086	618.64154	
22	0.210	-201.07239	19.93848	-166.03630	206.94386	18.46595	-210.39296	-135.28371	16.66053	438.84885	267.94943	19.65153	427.16373	13.82832	1214.18921	-210.36189	-89.29971	583.36182	-306.45731	69.97941	583.08801	-323.40683	10.30144	585.79895	634.50732	166.17157	579.76819	618.60999	
23	0.220	-201.07924	19.92630	-166.03267	206.92020	18.45618	-210.43294	-135.28522	16.66609	438.85944	267.92493	19.59595	427.18793	13.82571	1214.21765	-210.37984	-89.22414	583.34155	-306.47922	69.95381	583.11182	-323.42957	10.27835	585.79425	634.45673	166.09778	579.72430	618.39526	
24	0.230	-200.96956	19.88024	-166.01694	206.96118	18.47073	-210.42442	-135.21828	16.60124	438.86163	268.01642	19.62566	427.18353	13.89257	1214.19482	-210.35538	-89.19583	583.36566	-306.47906	70.01849	583.09576	-323.40662	10.36632	585.78479	634.47681	166.24979	579.76642	618.59607	
25	0.240	-201.00215	19.86630	-166.06328	206.92992	18.47377	-210.39188	-135.22450	16.62142	438.86987	268.00534	19.63823	427.23367	13.87183	1214.22473	-210.37248	-89.17682	583.31201	-306.46487	69.97258	583.10809	-323.42334	10.36623	585.78247	634.50861	166.17926	579.74658	618.63251	
26	0.250	-200.92744	19.85633	-166.03731	206.93948	18.48556	-210.39328	-135.22211	16.58766	438.87854	268.06689	19.61989	427.18869	13.90809	1214.18445	-210.36757	-89.15415	583.31750	-306.48459	69.97534	583.08215	-323.42441	10.35283	585.76440	634.46295	166.21295	579.69342	618.36462	
27	0.260	-200.97223	19.86803	-166.03185	206.94478	18.48570	-210.41124	-135.20714	16.59615	438.86591	267.95386	19.62067	427.19766	13.93582	1214.16211	-210.38887	-89.12964	583.31616	-306.51260	70.01839	583.08649	-323.41525	10.34536	585.76642	634.47455	166.23978	579.73810	618.60120	
28	0.270	-201.00328	19.87561	-166.03767	206.90331	18.46747	-210.43019	-135.23700	16.62321	438.85123	267.96188	19.61319	427.20221	13.97309	1214.19861	-210.42299	-89.16120	583.25500	-306.52542	69.98331	583.07709	-323.43066	10.35682	585.79254	634.46545	166.21594	579.70605	618.34741	
29	0.280	-200.95958	19.88090	-166.04163	207.00497	18.54734	-210.38031	-135.24091	16.66207	438.88354	267.94858	19.61163	427.20068	13.95390	1214.18054	-210.43221	-89.14972	583.28027	-306.56216	70.00739	583.07959	-323.41925	10.37917	585.80859	634.48816	166.28424	579.76300	618.61285	
30	0.290	-200.97594	19.86006	-166.06300	206.96967	18.49137	-210.36949	-135.24222	16.64716	438.85632	267.99066	19.63760	427.17957	14.13838	1214.05957	-210.52655	-89.11378	583.29993	-306.53320	69.98505	583.06598	-323.42261	10.35735	585.79297	634.46918	166.23936	579.68530	618.33765	
31	0.300	-200.94315	19.86257	-166.03632	206.97734	18.49629	-210.38124	-135.22110	16.62939	438.86978	267.98990	19.59521	427.21906	14.06346	1214.10852	-210.50058	-89.08768	583.24335	-306.54593	70.01837	583.06403	-323.41565	10.34790	585.78064	634.47052	166.30261	579.73480	618.60352	
32	0.310	-200.94522	19.86487	-166.01982	206.95918	18.46934	-210.37558	-135.18033	16.58396	438.83969	268.01437	19.62629	427.18381	14.03950	1214.07654	-210.54211	-89.07661	583.25391	-306.54691	70.04588	583.04828	-323.43112	10.38929	585.74683	634.45770	166.38286	579.69189	618.57385	
33	0.320	-200.88542	19.82804	-166.02673	206.89896	18.48018	-210.41277	-135.20331	16.58350	438.86292	267.94345	19.58349	427.21393	14.04474	1214.04907	-210.51534	-89.05416	583.22455	-306.57205	70.02527	583.04114	-323.43423	9.95678	585.67383	633.56476	166.30237	579.73145	618.59424	
34	0.330	-200.91467	19.88904	-166.01382	206.88669	18.45798	-210.41878	-135.18405	16.60177	438.89063	268.02533	19.62109	427.20953	14.09347	1214.09058	-210.53906	-89.00894	583.25470	-306.54697	70.03132	583.05212	-323.41565	10.02196	585.65466	633.57324	166.33705	579.69794	618.34039	
35	0.340	-200.94847	19.87938	-166.04114	206.91931	18.44507	-210.39847	-135.23962	16.63185	438.84619	267.91162	19.60612	427.21640	14.18952	1214.12341	-210.52696	-89.00867	583.26288	-306.53592	70.01316	583.05426	-323.45062	10.01433	585.67316	633.56793	166.23534	579.69708	618.35114	
36	0.350	-200.94914	19.86105	-166.06389	206.96365	18.51176	-210.43466	-135.23283	16.66246	438.85974	267.94812	19.58581	427.17905	14.14223	1214.14380	-210.56863	-88.94291	583.23932	-306.57187	70.09734	583.04456	-323.43787	10.02707	585.67120	633.55328	166.27855	579.70691	618.30811	
37	0.360	-200.90228	19.85613	-166.05951	206.96130	18.48840	-210.37715	-135.25290	16.66342	438.84924	267.97296	19.58266	427.24234	14.25436	1214.14368	-210.56659	-88.97939	583.26465	-306.56894	70.12785	583.06519	-323.42892	10.03482	585.66498	633.54022	166.34583	579.73291	618.58789	
38	0.370	-200.99715	19.92608	-166.04051	206.94011	18.45039	-210.41342	-135.23534	16.62608	438.84677	267.98148	19.59140	427.19238	14.26116	1214.12756	-210.56606	-88.90548	583.25842	-306.60034	70.10000	583.02728	-323.42929	10.04123	585.67834	633.55121	166.46628	579.73157	618.52258	
39	0.380	-200.93864	19.87822	-166.03812	206.95100	18.45190	-210.37682	-135.21227	16.63387	438.86703	268.02853	19.63201	427.22968	14.30962	1214.11890	-210.60310	-88.88278	583.23566	-306.58914	70.14225	583.05847	-323.44315	10.05148	585.67535	633.55194	166.48434	579.72424	618.52832	
40	0.390	-200.86526	19.84473	-166.06943	206.96645	18.46813	-210.39027	-135.22032	16.66426	438.86078	267.44302	19.69581	427.38980	14.34031	1214.11060	-210.57985	-88.82680	583.23596	-306.61621	70.15361	583.03040	-323.44562	10.10227	585.68909	633.54242	166.36017	579.69745	618.31708	
41	0.400	-200.86874	19.86717	-166.08629	206.95462	18.47719	-210.38806	-135.21913	16.65879	438.85620	268.00037	19.61729	427.20004	14.34326	1214.12085	-210.61374	-88.78191	583.20123	-306.60593	70.18456	583.01160	-323.45551	10.06300	585.68195	633.52277	166.35126	579.68988	618.31781	
42	0.410	-200.87747	19.84171	-166.06102	206.95393	18.46748	-210.40199	-135.22633	16.62884	438.83707	268.02679	19.62182	427.19208	14.35316	1214.11218	-210.62816	-88.79922	583.20636	-306.61801	70.14915	583.06244	-323.46298	10.06287	585.67688	633.51837	166.46208	579.72736	618.55017	
